HIERARCHY
ROOT hip
{
  OFFSET 0 0 0
  CHANNELS 6 Xposition Yposition Zposition Zrotation Yrotation Xrotation
  JOINT abdomen
  {
    OFFSET 0 20.6881 -0.73152
    CHANNELS 3 Zrotation Xrotation Yrotation
    JOINT chest
    {
      OFFSET 0 11.7043 -0.48768
      CHANNELS 3 Zrotation Xrotation Yrotation
      JOINT neck
      {
        OFFSET 0 22.1894 -2.19456
        CHANNELS 3 Zrotation Xrotation Yrotation
        JOINT head
        {
          OFFSET -0.24384 7.07133 1.2192
          CHANNELS 3 Zrotation Xrotation Yrotation
          JOINT leftEye
          {
            OFFSET 4.14528 8.04674 8.04672
            CHANNELS 3 Zrotation Xrotation Yrotation
            End Site
            {
              OFFSET 1 0 0
            }
          }
          JOINT rightEye
          {
            OFFSET -3.6576 8.04674 8.04672
            CHANNELS 3 Zrotation Xrotation Yrotation
            End Site
            {
              OFFSET 1 0 0
            }
          }
        }
      }
      JOINT rCollar
      {
        OFFSET -2.68224 19.2634 -4.8768
        CHANNELS 3 Zrotation Xrotation Yrotation
        JOINT rShldr
        {
          OFFSET -8.77824 -1.95073 1.46304
          CHANNELS 3 Zrotation Xrotation Yrotation
          JOINT rForeArm
          {
            OFFSET -28.1742 -1.7115 0.48768
            CHANNELS 3 Zrotation Xrotation Yrotation
            JOINT rHand
            {
              OFFSET -22.5879 0.773209 7.07136
              CHANNELS 3 Zrotation Xrotation Yrotation
              JOINT rThumb1
              {
                OFFSET -1.2192 -0.487915 3.41376
                CHANNELS 3 Zrotation Xrotation Yrotation
                JOINT rThumb2
                {
                  OFFSET -3.37035 -0.52449 3.41376
                  CHANNELS 3 Zrotation Xrotation Yrotation
                  End Site
                  {
                    OFFSET -1.78271 -1.18214 1.43049
                  }
                }
              }
              JOINT rIndex1
              {
                OFFSET -7.75947 0.938293 5.60832
                CHANNELS 3 Zrotation Xrotation Yrotation
                JOINT rIndex2
                {
                  OFFSET -2.54057 -0.884171 1.56538
                  CHANNELS 3 Zrotation Xrotation Yrotation
                  End Site
                  {
                    OFFSET -1.62519 -0.234802 1.16502
                  }
                }
              }
              JOINT rMid1
              {
                OFFSET -8.24714 1.18213 3.41376
                CHANNELS 3 Zrotation Xrotation Yrotation
                JOINT rMid2
                {
                  OFFSET -3.10165 -0.590103 1.0647
                  CHANNELS 3 Zrotation Xrotation Yrotation
                  End Site
                  {
                    OFFSET -2.48547 -0.328903 0.83742
                  }
                }
              }
              JOINT rRing1
              {
                OFFSET -8.82822 0.546677 1.51678
                CHANNELS 3 Zrotation Xrotation Yrotation
                JOINT rRing2
                {
                  OFFSET -2.60934 -0.819778 -0.0198488
                  CHANNELS 3 Zrotation Xrotation Yrotation
                  End Site
                  {
                    OFFSET -2.33842 -0.294052 0.168128
                  }
                }
              }
              JOINT rPinky1
              {
                OFFSET -8.27202 -0.0477905 -0.4584
                CHANNELS 3 Zrotation Xrotation Yrotation
                JOINT rPinky2
                {
                  OFFSET -1.82734 -0.647385 -0.700984
                  CHANNELS 3 Zrotation Xrotation Yrotation
                  End Site
                  {
                    OFFSET -1.69225 -0.51767 -0.607171
                  }
                }
              }
            }
          }
        }
      }
      JOINT lCollar
      {
        OFFSET 2.68224 19.2634 -4.8768
        CHANNELS 3 Zrotation Xrotation Yrotation
        JOINT lShldr
        {
          OFFSET 8.77824 -1.95073 1.46304
          CHANNELS 3 Zrotation Xrotation Yrotation
          JOINT lForeArm
          {
            OFFSET 28.1742 -1.7115 0.48768
            CHANNELS 3 Zrotation Xrotation Yrotation
            JOINT lHand
            {
              OFFSET 22.5879 0.773209 7.07136
              CHANNELS 3 Zrotation Xrotation Yrotation
              JOINT lThumb1
              {
                OFFSET 1.2192 -0.487915 3.41376
                CHANNELS 3 Zrotation Xrotation Yrotation
                JOINT lThumb2
                {
                  OFFSET 3.37035 -0.52449 3.41376
                  CHANNELS 3 Zrotation Xrotation Yrotation
                  End Site
                  {
                    OFFSET 1.78271 -1.18214 1.43049
                  }
                }
              }
              JOINT lIndex1
              {
                OFFSET 7.75947 0.938293 5.60832
                CHANNELS 3 Zrotation Xrotation Yrotation
                JOINT lIndex2
                {
                  OFFSET 2.54057 -0.884171 1.56538
                  CHANNELS 3 Zrotation Xrotation Yrotation
                  End Site
                  {
                    OFFSET 1.62519 -0.234802 1.16502
                  }
                }
              }
              JOINT lMid1
              {
                OFFSET 8.24714 1.18213 3.41376
                CHANNELS 3 Zrotation Xrotation Yrotation
                JOINT lMid2
                {
                  OFFSET 3.10165 -0.590103 1.0647
                  CHANNELS 3 Zrotation Xrotation Yrotation
                  End Site
                  {
                    OFFSET 2.48547 -0.328903 0.83742
                  }
                }
              }
              JOINT lRing1
              {
                OFFSET 8.82822 0.546677 1.51678
                CHANNELS 3 Zrotation Xrotation Yrotation
                JOINT lRing2
                {
                  OFFSET 2.60934 -0.819778 -0.0198488
                  CHANNELS 3 Zrotation Xrotation Yrotation
                  End Site
                  {
                    OFFSET 2.33842 -0.294052 0.168128
                  }
                }
              }
              JOINT lPinky1
              {
                OFFSET 8.27202 -0.0477905 -0.4584
                CHANNELS 3 Zrotation Xrotation Yrotation
                JOINT lPinky2
                {
                  OFFSET 1.82734 -0.647385 -0.700984
                  CHANNELS 3 Zrotation Xrotation Yrotation
                  End Site
                  {
                    OFFSET 1.69225 -0.51767 -0.607171
                  }
                }
              }
            }
          }
        }
      }
    }
  }
  JOINT rButtock
  {
    OFFSET -8.77824 4.35084 1.2192
    CHANNELS 3 Zrotation Xrotation Yrotation
    JOINT rThigh
    {
      OFFSET 0 -1.70687 -2.19456
      CHANNELS 3 Zrotation Xrotation Yrotation
      JOINT rShin
      {
        OFFSET 0 -36.8199 0.73152
        CHANNELS 3 Zrotation Xrotation Yrotation
        JOINT rFoot
        {
          OFFSET 0.73152 -45.1104 -5.12064
          CHANNELS 3 Zrotation Xrotation Yrotation
          End Site
          {
            OFFSET -1.1221 -3.69964 12.103
          }
        }
      }
    }
  }
  JOINT lButtock
  {
    OFFSET 8.77824 4.35084 1.2192
    CHANNELS 3 Zrotation Xrotation Yrotation
    JOINT lThigh
    {
      OFFSET 0 -1.70687 -2.19456
      CHANNELS 3 Zrotation Xrotation Yrotation
      JOINT lShin
      {
        OFFSET 0 -36.8199 0.73152
        CHANNELS 3 Zrotation Xrotation Yrotation
        JOINT lFoot
        {
          OFFSET -0.73152 -45.1104 -5.12064
          CHANNELS 3 Zrotation Xrotation Yrotation
          End Site
          {
            OFFSET 1.1221 -3.69964 12.103
          }
        }
      }
    }
  }
}
MOTION
Frames:	7
Frame Time:	0.00833333
61.3052 87.4719 -35.2852 -485.757 -83.6131 485.857 5.07565 0.398884 3.56942 -5.78117 0.988852 0.828795 2.39539 10.2862 -0.23457 1.83557 -21.0519 -0.443407 -0.0 0.0 0.0 -0.0 0.0 0.0 8.7502e-14 4.43413e-12 1.59276e-13 83.5433 24.4712 2.56342 -11.3308 -4.99024 20.322 -0.046995 6.17498 0.871245 -1.65821e-09 -3.19057e-10 2.50946e-10 -2.86278e-09 -5.54097e-10 4.43741e-10 -1.65821e-09 -3.19054e-10 2.50927e-10 7.73091 5.47488 0.417314 -1.65821e-09 -3.19053e-10 2.50946e-10 2.90554 0.965183 0.102902 -1.65821e-09 -3.19057e-10 2.50948e-10 10.2786 0.731801 0.0259123 -1.65822e-09 -3.19059e-10 2.50965e-10 2.22167 -0.733487 -0.20892 8.74344e-14 4.43411e-12 1.59028e-13 -81.034 10.0149 8.00292 10.2705 -4.30739 -18.3097 0.218411 -13.1948 1.88825 -1.18031e-09 1.49314e-09 -1.80605e-10 -2.04005e-09 2.58314e-09 -3.20226e-10 -1.18031e-09 1.49314e-09 -1.80595e-10 -7.73091 5.47488 -0.417314 -1.18031e-09 1.49314e-09 -1.80598e-10 -2.90554 0.965183 -0.102902 -1.18032e-09 1.49314e-09 -1.80593e-10 -10.2786 0.731801 -0.0259123 -1.1803e-09 1.49314e-09 -1.80598e-10 -2.22167 -0.733487 0.20892 -2.03217e-16 0.0 -3.88251e-19 4.50905 16.8112 2.47011 -0.197893 14.3238 -0.456902 5.20924 25.7718 -15.9222 2.03217e-16 0.0 3.88251e-19 4.52136 -28.4198 14.6951 0.245604 33.2524 0.163748 0.400428 5.52675 -2.97976
60.3118 87.4049 -35.1679 -488.866 -83.9469 488.859 4.24539 0.405364 3.58811 -5.65111 0.972303 0.808343 2.41738 10.248 -0.231622 1.84937 -20.782 -0.448002 -0.0 0.0 0.0 -0.0 0.0 0.0 5.55406e-14 3.39208e-12 1.17584e-13 83.7308 24.2234 2.27546 -11.3011 -4.97035 20.2653 -0.04777 6.22538 0.878413 -2.25045e-09 -5.98135e-10 2.0721e-09 -3.87528e-09 -1.0363e-09 3.59527e-09 -2.25045e-09 -5.98131e-10 2.07208e-09 7.73091 5.47488 0.417314 -2.25045e-09 -5.9813e-10 2.0721e-09 2.90554 0.965183 0.102902 -2.25045e-09 -5.98133e-10 2.0721e-09 10.2786 0.731801 0.0259123 -2.25046e-09 -5.98135e-10 2.07212e-09 2.22167 -0.733487 -0.20892 5.5472e-14 3.39206e-12 1.1733e-13 -80.9919 9.80313 7.97406 10.2054 -4.26708 -18.1872 0.212847 -13.027 1.86338 -1.7347e-09 7.70714e-10 -2.45344e-09 -2.98053e-09 1.33016e-09 -4.25384e-09 -1.73471e-09 7.70714e-10 -2.45343e-09 -7.73091 5.47488 -0.417314 -1.73471e-09 7.70714e-10 -2.45344e-09 -2.90554 0.965183 -0.102902 -1.73471e-09 7.70714e-10 -2.45343e-09 -10.2786 0.731801 -0.0259123 -1.7347e-09 7.70717e-10 -2.45344e-09 -2.22167 -0.733487 0.20892 -2.03217e-16 0.0 -3.88251e-19 3.78642 15.7298 2.83233 -0.223756 16.6648 -0.458111 5.71742 27.0081 -16.4303 2.03217e-16 0.0 3.88251e-19 3.87854 -27.9152 14.6149 0.254501 33.7254 0.201982 0.37335 4.76976 -3.02955
59.362 87.343 -35.0592 -491.879 -84.2561 491.794 3.39274 0.390781 3.60199 -5.50553 0.948497 0.783347 2.43144 10.1918 -0.231503 1.86609 -20.4848 -0.4584 -0.0 0.0 0.0 -0.0 0.0 0.0 3.31859e-14 1.80482e-12 4.84413e-14 83.8999 23.9572 1.98482 -11.2787 -4.95539 20.2224 -0.0485134 6.27351 0.88526 -3.0597e-09 -1.0116e-09 4.51084e-09 -5.25917e-09 -1.75119e-09 7.81588e-09 -3.0597e-09 -1.01159e-09 4.51082e-09 7.73091 5.47488 0.417314 -3.0597e-09 -1.01159e-09 4.51084e-09 2.90554 0.965183 0.102902 -3.05969e-09 -1.01159e-09 4.51084e-09 10.2786 0.731801 0.0259123 -3.0597e-09 -1.01159e-09 4.51086e-09 2.22167 -0.733487 -0.20892 3.31111e-14 1.8048e-12 4.81898e-14 -80.9562 9.58649 7.91044 10.142 -4.22813 -18.0679 0.208327 -12.8907 1.84321 -2.53524e-09 -3.20654e-10 -5.5129e-09 -4.34046e-09 -5.63043e-10 -9.54959e-09 -2.53525e-09 -3.20656e-10 -5.5129e-09 -7.73091 5.47488 -0.417314 -2.53525e-09 -3.20655e-10 -5.5129e-09 -2.90554 0.965183 -0.102902 -2.53525e-09 -3.20655e-10 -5.5129e-09 -10.2786 0.731801 -0.0259123 -2.53524e-09 -3.20652e-10 -5.5129e-09 -2.22167 -0.733487 0.20892 -2.03217e-16 0.0 -3.88251e-19 3.07605 14.5083 3.15805 -0.248 19.1002 -0.459935 6.25549 28.3832 -16.8764 2.03217e-16 0.0 3.88251e-19 3.26406 -27.4721 14.6059 0.263182 34.181 0.243036 0.350961 4.07881 -3.17699
58.458 87.2867 -34.9633 -494.633 -84.5369 494.495 2.55398 0.381581 3.60484 -5.3511 0.916115 0.754285 2.44142 10.1363 -0.230445 1.88558 -20.21 -0.465319 -0.0 0.0 0.0 -0.0 0.0 0.0 1.77139e-14 1.89327e-13 -2.21365e-14 84.0471 23.6912 1.71425 -11.2574 -4.94123 20.1816 -0.0491303 6.31313 0.890896 -3.65788e-09 -1.34956e-09 6.54765e-09 -6.28078e-09 -2.33552e-09 1.13405e-08 -3.65788e-09 -1.34956e-09 6.54764e-09 7.73091 5.47488 0.417314 -3.65788e-09 -1.34956e-09 6.54765e-09 2.90554 0.965183 0.102902 -3.65788e-09 -1.34956e-09 6.54766e-09 10.2786 0.731801 0.0259123 -3.65789e-09 -1.34956e-09 6.54767e-09 2.22167 -0.733487 -0.20892 1.76337e-14 1.89322e-13 -2.23839e-14 -80.9261 9.40953 7.81467 10.092 -4.19753 -17.974 0.205485 -12.8055 1.83059 -3.17571e-09 -1.36831e-09 -8.09038e-09 -5.42748e-09 -2.38017e-09 -1.4011e-08 -3.17572e-09 -1.36831e-09 -8.09038e-09 -7.73091 5.47488 -0.417314 -3.17571e-09 -1.36831e-09 -8.09038e-09 -2.90554 0.965183 -0.102902 -3.17572e-09 -1.36831e-09 -8.09038e-09 -10.2786 0.731801 -0.0259123 -3.17571e-09 -1.36831e-09 -8.09038e-09 -2.22167 -0.733487 0.20892 -2.03217e-16 0.0 -3.88251e-19 2.41749 13.2043 3.47827 -0.270727 21.5523 -0.458335 6.77221 29.7437 -17.2416 2.03217e-16 0.0 3.88251e-19 2.6899 -27.0753 14.6314 0.271133 34.616 0.282986 0.330949 3.47878 -3.35905
57.5994 87.2375 -34.8842 -497.001 -84.7862 496.828 1.76535 0.404206 3.59044 -5.19449 0.873841 0.721636 2.4512 10.1006 -0.224682 1.90748 -20.0071 -0.459541 -0.0 0.0 0.0 -0.0 0.0 0.0 6.40078e-15 -9.37413e-13 -6.81334e-14 84.1698 23.4443 1.48615 -11.231 -4.92374 20.1312 -0.0495215 6.33795 0.894429 -3.61694e-09 -1.40216e-09 7.16303e-09 -6.20645e-09 -2.42608e-09 1.24041e-08 -3.61694e-09 -1.40215e-09 7.16302e-09 7.73091 5.47488 0.417314 -3.61694e-09 -1.40215e-09 7.16303e-09 2.90554 0.965183 0.102902 -3.61694e-09 -1.40215e-09 7.16303e-09 10.2786 0.731801 0.0259123 -3.61695e-09 -1.40215e-09 7.16304e-09 2.22167 -0.733487 -0.20892 6.32186e-15 -9.37413e-13 -6.83819e-14 -80.9005 9.3168 7.68921 10.0672 -4.18235 -17.9275 0.204955 -12.7907 1.8284 -3.24989e-09 -1.95958e-09 -8.91726e-09 -5.54921e-09 -3.40492e-09 -1.54414e-08 -3.2499e-09 -1.95958e-09 -8.91726e-09 -7.73091 5.47488 -0.417314 -3.24989e-09 -1.95958e-09 -8.91727e-09 -2.90554 0.965183 -0.102902 -3.2499e-09 -1.95958e-09 -8.91726e-09 -10.2786 0.731801 -0.0259123 -3.24989e-09 -1.95958e-09 -8.91727e-09 -2.22167 -0.733487 0.20892 -2.03217e-16 0.0 -3.88251e-19 1.85159 11.8757 3.8235 -0.2928 23.943 -0.448874 7.20922 30.9373 -17.4991 2.03217e-16 0.0 3.88251e-19 2.16944 -26.7095 14.6555 0.277996 35.0271 0.31782 0.314399 2.99443 -3.51291
56.7805 87.1979 -34.8323 -499.041 -85.0116 498.84 1.03585 0.465999 3.55484 -5.03242 0.814822 0.683635 2.46089 10.0898 -0.213159 1.93529 -19.8953 -0.437684 -0.0 0.0 0.0 -0.0 0.0 0.0 2.70446e-15 -1.28444e-12 -7.37324e-14 84.2664 23.2239 1.30291 -11.1992 -4.90266 20.0704 -0.0494278 6.33161 0.893526 -2.59144e-09 -1.00879e-09 5.56443e-09 -4.44399e-09 -1.74501e-09 9.63445e-09 -2.59144e-09 -1.00878e-09 5.56443e-09 7.73091 5.47488 0.417314 -2.59144e-09 -1.00878e-09 5.56444e-09 2.90554 0.965183 0.102902 -2.59143e-09 -1.00878e-09 5.56444e-09 10.2786 0.731801 0.0259123 -2.59145e-09 -1.00878e-09 5.56445e-09 2.22167 -0.733487 -0.20892 2.63924e-15 -1.28444e-12 -7.39945e-14 -80.8825 9.31458 7.53397 10.0721 -4.18528 -17.937 0.207271 -12.8611 1.83881 -2.44805e-09 -1.83399e-09 -7.01683e-09 -4.17779e-09 -3.1851e-09 -1.215e-08 -2.44806e-09 -1.83399e-09 -7.01683e-09 -7.73091 5.47488 -0.417314 -2.44805e-09 -1.83399e-09 -7.01683e-09 -2.90554 0.965183 -0.102902 -2.44806e-09 -1.83399e-09 -7.01683e-09 -10.2786 0.731801 -0.0259123 -2.44805e-09 -1.83398e-09 -7.01683e-09 -2.22167 -0.733487 0.20892 -2.03217e-16 0.0 -3.88251e-19 1.41235 10.5062 4.21832 -0.317397 26.2798 -0.431524 7.59708 32.0383 -17.6842 2.03217e-16 0.0 3.88251e-19 1.72728 -26.4058 14.6838 0.284705 35.4314 0.348156 0.304679 2.65299 -3.63183
55.9918 87.1753 -34.793 -501.039 -85.222 500.813 0.346489 0.552767 3.50212 -4.86306 0.741927 0.640658 2.46872 10.0937 -0.197901 1.96793 -19.8461 -0.404993 -0.0 0.0 0.0 -0.0 0.0 0.0 6.68288e-15 -1.17852e-12 -5.57684e-14 84.3396 23.0193 1.15333 -11.1648 -4.87989 20.0049 -0.0489767 6.30233 0.889362 -8.86775e-10 -3.16263e-10 2.46916e-09 -1.51687e-09 -5.46377e-10 4.2735e-09 -8.86773e-10 -3.16259e-10 2.46916e-09 7.73091 5.47488 0.417314 -8.8678e-10 -3.16263e-10 2.46917e-09 2.90554 0.965183 0.102902 -8.86766e-10 -3.16259e-10 2.46916e-09 10.2786 0.731801 0.0259123 -8.86778e-10 -3.1626e-10 2.46917e-09 2.22167 -0.733487 -0.20892 6.63929e-15 -1.17852e-12 -5.60511e-14 -80.871 9.38099 7.34771 10.1001 -4.2023 -17.9897 0.212017 -13.0031 1.85984 -1.05398e-09 -1.26176e-09 -3.27848e-09 -1.7969e-09 -2.18982e-09 -5.67655e-09 -1.05399e-09 -1.26176e-09 -3.27848e-09 -7.73091 5.47488 -0.417314 -1.05398e-09 -1.26176e-09 -3.27848e-09 -2.90554 0.965183 -0.102902 -1.05399e-09 -1.26176e-09 -3.27848e-09 -10.2786 0.731801 -0.0259123 -1.05398e-09 -1.26176e-09 -3.27848e-09 -2.22167 -0.733487 0.20892 -2.03217e-16 0.0 -3.88251e-19 1.07537 9.07607 4.64149 -0.344622 28.5947 -0.407493 7.93892 33.0928 -17.7892 2.03217e-16 0.0 3.88251e-19 1.34886 -26.1607 14.7298 0.291309 35.8246 0.375461 0.301834 2.4343 -3.74584
